<svg xmlns:svg="http://www.w3.org/2000/svg" xmlns="http://www.w3.org/2000/svg" width="100" height="100" viewBox="0 0 100 100" xml:space="preserve" ><defs
     id="defs14" /><g id="g9" transform="matrix(3.5593219,0,0,3.5593219,-0.00255932,0.47068066)" style="stroke-width:0.28095239"><g id="c129_exclamation" style="stroke-width:0.28095239"><path d="M 13.983,0 C 6.261,0 0.001,6.259 0.001,13.979 c 0,7.724 6.26,13.984 13.982,13.984 7.722,0 13.98,-6.261 13.98,-13.984 C 27.963,6.259 21.705,0 13.983,0 Z m 0,26.531 c -6.933,0 -12.55,-5.62 -12.55,-12.553 0,-6.93 5.617,-12.548 12.55,-12.548 6.931,0 12.549,5.618 12.549,12.548 -0.001,6.933 -5.619,12.553 -12.549,12.553 z" id="path2" style="stroke-width:0.28095239" /><polygon points="11.804,4.579 12.414,17.158 15.579,17.158 16.191,4.579 " id="polygon4" style="stroke-width:0.28095239" /><path d="m 13.998,18.546 c -1.471,0 -2.5,1.029 -2.5,2.526 0,1.443 0.999,2.528 2.444,2.528 h 0.056 c 1.499,0 2.469,-1.085 2.469,-2.528 -0.026,-1.497 -0.999,-2.526 -2.469,-2.526 z" id="path6" style="stroke-width:0.28095239" /></g></g></svg>